<?xml version="1.0" encoding="UTF-8"?>
<!DOCTYPE svg PUBLIC "-//W3C//DTD SVG 1.1//EN" "http://www.w3.org/Graphics/SVG/1.1/DTD/svg11.dtd">
<!-- Creator: CorelDRAW -->
<svg xmlns="http://www.w3.org/2000/svg" xml:space="preserve" width="223.685mm" height="216.989mm" version="1.1" style="shape-rendering:geometricPrecision; text-rendering:geometricPrecision; image-rendering:optimizeQuality; fill-rule:evenodd; clip-rule:evenodd"
viewBox="0 0 22368.48 21698.86"
 xmlns:xlink="http://www.w3.org/1999/xlink"
 xmlns:xodm="http://www.corel.com/coreldraw/odm/2003">
 <defs>
  <style type="text/css">
   <![CDATA[
    .fil0 {fill:url(#id0)}
    .fil1 {fill:url(#id1)}
    .fil3 {fill:url(#id2);fill-rule:nonzero}
    .fil2 {fill:url(#id3);fill-rule:nonzero}
   ]]>
  </style>
  <linearGradient id="id0" gradientUnits="userSpaceOnUse" x1="5535.07" y1="16848.43" x2="16831.99" y2="1650.39">
   <stop offset="0" style="stop-opacity:1; stop-color:#5130F2"/>
   <stop offset="0.419608" style="stop-opacity:1; stop-color:#3059EA"/>
   <stop offset="1" style="stop-opacity:1; stop-color:#0E83E2"/>
  </linearGradient>
  <linearGradient id="id1" gradientUnits="userSpaceOnUse" x1="6396.6" y1="15720.08" x2="15485.94" y2="3887.29">
   <stop offset="0" style="stop-opacity:1; stop-color:#FF312F"/>
   <stop offset="0.521569" style="stop-opacity:1; stop-color:#FF6519"/>
   <stop offset="1" style="stop-opacity:1; stop-color:#FF9903"/>
  </linearGradient>
  <linearGradient id="id2" gradientUnits="objectBoundingBox" x1="47.151%" y1="130.519%" x2="52.849%" y2="0%">
   <stop offset="0" style="stop-opacity:1; stop-color:#5130F2"/>
   <stop offset="0.509804" style="stop-opacity:1; stop-color:#A84986"/>
   <stop offset="1" style="stop-opacity:1; stop-color:#FF631A"/>
  </linearGradient>
  <linearGradient id="id3" gradientUnits="userSpaceOnUse" xlink:href="#id1" x1="16581.21" y1="3565.72" x2="20612.15" y2="4685.4">
  </linearGradient>
 </defs>
 <g id="Layer_x0020_1">
  <metadata id="CorelCorpID_0Corel-Layer"/>
  <path class="fil0" d="M21530.83 4410.3c460.32,0 836.94,376.62 836.94,836.9l0 10699.2c0,872.77 -677.03,1595.01 -1531.8,1667.71l0 4.8 -78.79 0c-21,0.82 -42.07,1.33 -63.25,1.33l0 -1.33 -19020.8 0 0 1.22c-20.22,0 -40.32,-0.49 -60.36,-1.22l-96.95 0 0 -6.29c-847.58,-79.94 -1516.53,-798.78 -1516.53,-1666.35l0 -13393.8c0,-858.55 654.99,-1571.35 1489.96,-1663.65l0 -9.73 144.3 0c13.14,-0.33 26.35,-0.51 39.58,-0.51l0 0.51 14260.58 0c460.29,0 836.92,376.63 836.92,836.94 0,460.32 -376.63,836.9 -836.92,836.9l-12715.46 0 5658.97 5658.97c376.18,376.18 376.18,991.72 -0.02,1367.92l-75.17 75.17c-376.2,376.21 -991.74,376.21 -1367.92,0.03l-5760.98 -5760.98 0 12051 17368.67 0c0,0 1652.33,9.24 1652.33,9.24 0,0 -0.2,-1127.99 -0.2,-1127.99l0 -9579.09c0,-460.28 376.58,-836.9 836.9,-836.9z"/>
  <path class="fil1" d="M1662.99 15943.98l0.81 -2245.42c1796.92,-1901.04 4483.05,-4728.31 4483.05,-4728.31 1927.58,-2314.17 1869.75,-1622.68 4544.92,1114.6 1095.69,847.74 1252.27,645.19 2971.34,-1039.61 0,0 2546.92,-2415.08 2546.92,-2415.08 1012.71,-1046.25 1995.92,-2078.32 2837.42,-2966.77l1172.1 1110.24c-1295.38,1406.8 -2629.2,2859.67 -2629.2,2859.67 0,0 -2696.45,2842.43 -2696.45,2842.43 -1248.48,1423.11 -2389.89,2012.22 -3177.72,1981.2 -1748.29,-34.15 -2703.95,-1314.5 -3842.92,-2588.89l-5741.27 6074.27 -469 1.67z"/>
  <polygon class="fil2" points="22273.71,7.63 16928.22,3558.16 18026.92,4737.65 14710.31,8052.25 20219.56,4773.62 19168.95,3532.59 "/>
  <path class="fil3" d="M2111.8 19639.73c2.72,16.3 4.75,32.61 6.11,48.92 1.36,16.3 2.04,33.97 2.04,52.99l0 4.08 0 4.07c0,19.03 -0.68,36.69 -2.04,53 -1.36,16.3 -3.39,32.61 -6.11,48.91l0 4.08 -12.23 97.84c-2.72,2.71 -4.08,8.15 -4.08,16.3 -2.72,13.59 -5.43,25.82 -8.15,36.69 -2.72,10.87 -6.79,23.1 -12.23,36.69 -38.05,125.01 -94.44,236.43 -169.17,334.27 -74.74,97.83 -165.1,180.72 -271.09,248.66 -89.68,54.35 -188.87,97.15 -297.58,128.41 -108.7,31.25 -224.2,46.88 -346.5,46.88l-534.01 0 0 884.59 -436.18 0 0 -2996.19 970.19 0c244.59,0 459.28,58.42 644.08,175.28 105.99,67.94 196.35,150.83 271.09,248.67 74.73,97.83 131.12,207.9 169.17,330.19 10.87,29.89 17.66,55.71 20.38,77.45 0,8.15 1.36,13.59 4.08,16.31 2.72,16.3 4.75,32.61 6.11,48.91 1.36,16.31 3.4,31.26 6.12,44.85l0 8.15zm-1068.03 778.6c89.68,0 171.89,-19.02 246.62,-57.07 74.74,-38.05 139.96,-88.32 195.67,-150.83 55.71,-62.5 99.2,-133.84 130.45,-214.01 31.25,-80.17 46.88,-163.74 46.88,-250.7 0,-86.97 -15.63,-170.54 -46.88,-250.71 -31.25,-80.17 -74.74,-151.5 -130.45,-214.01 -55.71,-62.5 -120.93,-112.78 -195.67,-150.83 -74.73,-38.04 -156.94,-57.07 -246.62,-57.07l-582.93 0 0 1345.23 582.93 0z"/>
  <path id="_1" class="fil3" d="M3840.21 19529.66c149.47,0 289.43,27.86 419.88,83.57 130.44,55.71 244.58,132.49 342.42,230.32 97.83,97.84 174.61,211.98 230.32,342.42 55.71,130.45 83.57,270.41 83.57,419.88 0,149.47 -27.86,289.43 -83.57,419.87 -55.71,130.45 -132.49,244.59 -230.32,342.42 -97.84,97.84 -211.98,174.61 -342.42,230.32 -130.45,55.71 -270.41,83.57 -419.88,83.57 -149.47,0 -289.43,-27.86 -419.87,-83.57 -130.45,-55.71 -244.59,-132.48 -342.42,-230.32 -97.84,-97.83 -174.61,-211.97 -230.32,-342.42 -55.71,-130.44 -83.57,-270.4 -83.57,-419.87 0,-149.47 27.86,-289.43 83.57,-419.88 55.71,-130.44 132.48,-244.58 230.32,-342.42 97.83,-97.83 211.97,-174.61 342.42,-230.32 130.44,-55.71 270.4,-83.57 419.87,-83.57zm2.04 1732.5c89.68,0 173.93,-16.99 254.1,-50.96 79.49,-33.97 149.47,-80.85 209.26,-140.64 59.78,-59.79 105.98,-129.76 139.96,-209.93 33.97,-80.17 50.95,-165.1 50.95,-254.78 0,-89.68 -16.98,-174.61 -50.95,-254.78 -33.98,-80.17 -80.18,-150.15 -139.96,-209.94 -59.79,-59.79 -129.77,-106.67 -209.26,-140.64 -80.17,-33.97 -164.42,-50.95 -254.1,-50.95 -89.68,0 -173.93,16.98 -254.1,50.95 -79.49,33.97 -149.47,80.85 -209.26,140.64 -59.78,59.79 -106.66,129.77 -141.99,209.94 -35.33,80.17 -53,165.1 -53,254.78 0,89.68 17.67,174.61 53,254.78 35.33,80.17 82.21,150.14 141.99,209.93 59.79,59.79 129.77,106.67 209.26,140.64 80.17,33.97 164.42,50.96 254.1,50.96z"/>
  <polygon id="_2" class="fil3" points="7949.27,19525.59 8405.83,19525.59 7688.38,21168.4 7460.1,21694.26 7227.74,21168.4 6983.15,20609.92 6738.56,21168.4 6510.28,21694.26 6282,21168.4 5560.47,19525.59 6021.11,19525.59 6510.28,20642.54 6754.87,20084.06 6983.15,19558.2 7215.51,20084.06 7460.1,20642.54 "/>
  <path id="_3" class="fil3" d="M10301.38 20748.52l-819.37 0c16.31,73.38 44.16,142 83.57,205.86 39.41,63.87 87.64,118.9 144.71,165.1 57.07,46.2 120.94,82.21 191.6,108.03 70.66,25.81 145.39,38.72 224.2,38.72 95.12,0 184.12,-19.02 267.01,-57.07 82.89,-38.05 155.58,-91.04 218.09,-158.98l77.45 0 415.8 0c-16.31,40.76 -36.01,79.49 -59.11,116.18 -23.1,36.69 -48.24,72.7 -75.41,108.02 -97.84,125.02 -220.13,224.89 -366.88,299.62 -146.76,74.74 -305.74,112.11 -476.95,112.11 -149.47,0 -289.43,-27.86 -419.87,-83.57 -130.45,-55.71 -244.59,-132.49 -342.42,-230.32 -97.84,-97.84 -174.61,-211.98 -230.32,-342.42 -55.71,-130.45 -83.57,-270.41 -83.57,-419.88 0,-149.47 27.86,-289.42 83.57,-419.87 55.71,-130.45 132.48,-244.59 230.32,-342.42 97.83,-97.84 211.97,-174.61 342.42,-230.32 130.44,-55.71 270.4,-83.57 419.87,-83.57 171.21,0 330.19,37.37 476.95,112.1 146.75,74.74 269.04,175.97 366.88,303.7 89.68,108.7 154.9,236.43 195.67,383.19 24.46,86.96 36.69,179.36 36.69,277.19 0,48.92 -4.08,95.12 -12.23,138.6l-423.95 0 -464.72 0zm-175.29 -794.9c-133.16,0 -252.06,33.97 -356.69,102.59 -104.63,68.62 -184.12,159.66 -238.47,272.44l949.81 0 240.51 0c-13.58,-21.74 -26.49,-42.8 -38.72,-64.55 -12.23,-21.74 -25.14,-41.44 -38.73,-60.46 -62.5,-78.13 -138.6,-139.28 -228.28,-183.44 -89.68,-44.16 -186.16,-66.58 -289.43,-66.58z"/>
  <path id="_4" class="fil3" d="M13293.49 19690c92.4,60.47 171.21,135.89 236.43,226.25l-236.43 188.19 -89.68 73.38c-46.2,-67.94 -106.67,-122.29 -181.4,-163.06 -74.74,-40.76 -155.59,-61.14 -242.55,-61.14 -70.66,0 -137.24,13.58 -199.75,40.76 -62.51,27.18 -116.86,63.86 -163.06,110.06 -46.2,46.2 -82.89,100.56 -110.06,163.06 -27.18,62.51 -40.77,129.09 -40.77,199.75l0 774.52 0 436.18 -419.87 0 0 -1212.74 0 -931.47 419.87 0 0 156.26c73.38,-48.91 153.55,-87.64 240.51,-114.82 86.97,-27.85 178.01,-41.44 273.13,-41.44 95.11,0 186.15,13.59 273.12,41.44 86.96,27.18 167.13,65.91 240.51,114.82z"/>
  <path id="_5" class="fil3" d="M16860.39 19676.42c127.73,84.24 229.64,194.99 305.73,332.23 76.1,137.24 114.14,287.39 114.14,450.44l0 1227.02 -419.87 0 0 -440.26 0 -786.76c0,-70.65 -13.59,-137.24 -40.77,-199.74 -27.17,-62.51 -64.54,-117.54 -112.1,-165.1 -47.56,-47.56 -102.59,-84.92 -165.1,-112.1 -62.5,-27.18 -129.08,-40.76 -199.74,-40.76 -70.66,0 -137.92,13.58 -201.79,40.76 -63.86,27.18 -119.57,64.54 -167.13,112.1 -47.56,47.56 -84.93,102.59 -112.1,165.1 -27.18,62.5 -40.77,129.09 -40.77,199.74l0 786.76 0 440.26 -419.87 0 0 -440.26 0 -786.76c0,-70.65 -13.59,-137.24 -40.77,-199.74 -27.17,-62.51 -64.54,-117.54 -112.1,-165.1 -47.56,-47.56 -102.59,-84.92 -165.09,-112.1 -62.51,-27.18 -129.09,-40.76 -199.75,-40.76 -70.66,0 -137.92,13.58 -201.78,40.76 -63.87,27.18 -119.58,64.54 -167.14,112.1 -47.56,47.56 -84.93,102.59 -112.1,165.1 -27.18,62.5 -40.77,129.09 -40.77,199.74l0 786.76 0 440.26 -419.87 0 0 -1227.02 0 -937.58 419.87 0 0 154.91c76.1,-48.92 158.31,-86.97 246.63,-114.14 88.32,-27.18 180.04,-40.77 275.16,-40.77 95.12,0 186.84,13.59 275.16,40.77 88.32,27.17 169.17,65.22 242.55,114.14 78.81,51.63 149.47,116.85 211.97,195.67 59.79,-76.1 129.09,-141.32 207.9,-195.67 76.1,-48.92 158.31,-86.97 246.63,-114.14 88.32,-27.18 180.04,-40.77 275.16,-40.77 95.12,0 186.84,13.59 275.16,40.77 88.32,27.17 169.17,65.22 242.55,114.14z"/>
  <path id="_6" class="fil3" d="M18949.57 19533.74c149.47,0 289.42,28.54 421.23,85.61 131.13,57.07 246.63,134.52 345.82,232.35 99.19,97.84 176.64,213.34 233.72,346.5 57.07,133.17 85.6,274.48 85.6,423.95l0 1055.8 -419.87 0 0 -197.7c-92.4,69.97 -194.31,125.01 -305.74,165.77 -111.42,40.09 -231,60.47 -358.73,60.47 -149.46,0 -290.1,-28.54 -421.91,-85.61 -131.8,-57.07 -246.62,-134.52 -344.46,-232.35 -97.83,-97.84 -175.28,-212.66 -232.36,-344.46 -57.07,-131.81 -85.6,-272.45 -85.6,-421.92 0,-149.47 28.53,-290.78 85.6,-423.95 57.08,-133.16 133.85,-248.66 231.68,-346.5 97.84,-97.83 212.66,-175.28 343.78,-232.35 131.81,-57.07 271.77,-85.61 421.24,-85.61zm2.03 1752.87c92.4,0 178.69,-17.66 258.86,-52.99 80.17,-36.01 150.15,-83.57 209.94,-144.03 59.78,-59.79 107.34,-130.45 142.67,-211.3 35.33,-80.17 53,-165.78 53,-256.14 0,-93.08 -17.67,-180.04 -53,-260.21 -35.33,-80.85 -82.89,-151.51 -142.67,-211.3 -59.79,-60.46 -129.77,-108.02 -209.94,-144.03 -80.17,-35.33 -166.46,-52.99 -258.86,-52.99 -92.39,0 -178.68,17.66 -258.85,52.99 -80.17,36.01 -150.15,83.57 -209.94,144.03 -59.78,59.79 -107.34,130.45 -142.67,211.3 -35.33,80.17 -53,167.13 -53,260.21 0,90.36 17.67,175.97 53,256.14 35.33,80.85 82.89,151.51 142.67,211.3 59.79,60.46 129.77,108.02 209.94,144.03 80.17,35.33 166.46,52.99 258.85,52.99z"/>
  <path id="_7" class="fil3" d="M20749.32 19529.66l419.88 0 0 2152.37 -419.88 0 0 -2152.37zm0 -220.12l0 -419.88 419.88 0 0 419.88 -419.88 0z"/>
  <polygon id="_8" class="fil3" points="21939.64,21661.65 21939.64,18102.91 22359.52,18102.91 22359.52,21661.65 "/>
 </g>
</svg>
