<?xml version="1.0" encoding="UTF-8"?>
<!DOCTYPE svg PUBLIC "-//W3C//DTD SVG 1.1//EN" "http://www.w3.org/Graphics/SVG/1.1/DTD/svg11.dtd">
<!-- Creator: CorelDRAW -->
<svg xmlns="http://www.w3.org/2000/svg" xml:space="preserve" width="53.9004mm" height="26.3448mm" version="1.1" style="shape-rendering:geometricPrecision; text-rendering:geometricPrecision; image-rendering:optimizeQuality; fill-rule:evenodd; clip-rule:evenodd"
viewBox="0 0 5390.04 2634.48"
 xmlns:xlink="http://www.w3.org/1999/xlink"
 xmlns:xodm="http://www.corel.com/coreldraw/odm/2003">
 <defs>
  <style type="text/css">
   <![CDATA[
    .fil1 {fill:#EF7F1A}
    .fil0 {fill:#FBB624}
   ]]>
  </style>
 </defs>
 <g id="Layer_x0020_1">
  <metadata id="CorelCorpID_0Corel-Layer"/>
  <path class="fil0" d="M1824.4 811.78c73.86,72.79 216.21,205.41 265.33,249.9l548.16 -549.37 825.86 796.87 -809.28 813.32c-280.02,-277.12 -282.26,-277.81 -534.64,-526.2 -183.32,-177.09 -271.88,-267.57 -545.36,-536.7 -767.49,769.16 -808.93,810.7 -1577.35,1580.79 268.64,0.44 285.01,-0.49 517.9,-0.56 195.35,-195.77 235.44,-235.95 406.07,-406.97 183.05,-183.44 195.03,-195.44 655.73,-657.16l1078.85 1061.8 1332.18 -1335.09 -1362.17 -1296.32 -801.28 805.69z"/>
  <path class="fil1" d="M4856.33 2640.58l210.39 0c86.5,-0.1 155.38,-0.17 320.45,-0.35 -580.55,-581.82 -767.52,-711.91 -1134.4,-1079.58l-258.74 259.31c495.97,471.99 538.29,512.28 862.3,820.62z"/>
 </g>
</svg>
